PathFileType	4	(X/Y/Z)	D:\TRACE\v60_Jaco2_6-2-23\BothDRS_Motion2_1-platform.trc
DataRate	CameraRate	NumFrames	NumMarkers	Units	OrigDataRate	OrigDataStartFrame	OrigNumFrames
100.00	100.00	      66	5	mm	100.00	3751	      7500
Frame#	Time	Left_Front			Right_Front			Left_Aft			Right_Aft			Post			
		X1	Y1	Z1	X2	Y2	Z2	X3	Y3	Z3	X4	Y4	Z4	X5	Y5	Z5	

3751	37.500	-792.57825	-18.56299	-645.03979	777.47699	-16.94461	-650.00940	-701.43115	26.95214	489.49200	741.29077	26.51943	498.38718	-6.96261	1266.59998	-1023.89728	
3752	37.510	-791.52423	-17.09740	-644.65076	778.67340	-15.63750	-649.93500	-699.96191	25.96274	489.91199	742.32843	25.60577	498.78934	-5.51448	1268.55005	-1019.81659	
3753	37.520	-790.39746	-15.80865	-644.63715	779.67810	-14.16747	-649.65723	-698.58850	24.69770	489.86502	743.59821	24.51510	499.12094	-4.53504	1270.85449	-1015.79852	
3754	37.530	-789.15417	-14.52619	-644.20184	780.88416	-12.80810	-649.33197	-697.30560	23.32234	490.29742	744.83337	23.59281	499.51840	-3.56523	1272.84119	-1011.39667	
3755	37.540	-788.13763	-12.98288	-644.07013	781.91510	-11.53234	-649.10828	-695.91205	21.99415	490.78812	745.67047	22.34888	499.89120	-2.70173	1275.48401	-1007.35907	
3756	37.550	-786.92053	-11.44776	-643.78497	782.98572	-9.83963	-648.92590	-694.67926	21.05410	491.17499	747.09796	21.47898	500.32748	-1.50589	1277.70923	-1003.61414	
3757	37.560	-785.88068	-9.72182	-643.33344	784.44519	-8.38844	-648.34668	-693.56348	20.27059	491.43033	747.86133	20.35290	500.61502	-0.62105	1280.07324	-1000.65741	
3758	37.570	-784.63251	-8.23149	-643.19226	785.28937	-6.83656	-647.99677	-692.60016	19.30354	492.02206	749.49847	19.49271	501.03433	0.81683	1282.29395	-997.92389	
3759	37.580	-783.42566	-6.81394	-642.64307	786.53253	-5.45053	-647.94531	-691.53143	18.11373	492.36166	750.09924	18.35015	501.35141	2.06351	1284.47607	-995.60071	
3760	37.590	-782.60828	-5.33912	-642.44672	787.71240	-3.77591	-647.34113	-690.54529	17.25844	492.75830	751.52820	17.27786	501.73843	3.17945	1286.89026	-993.46399	
3761	37.600	-781.52399	-3.75795	-642.19934	788.65259	-2.30050	-647.05188	-689.14038	15.68862	493.31396	752.66711	16.18103	502.15042	4.45045	1288.86829	-990.78131	
3762	37.610	-780.27020	-2.40154	-641.87720	789.69458	-0.82288	-646.82275	-688.16510	14.99612	493.29443	753.59607	14.92674	502.49850	5.65770	1291.45764	-988.16467	
3763	37.620	-779.09106	-0.61285	-641.48676	790.84351	0.41114	-646.61993	-687.22772	14.12875	493.76288	754.89642	13.96263	502.89072	7.03094	1293.68787	-985.63934	
3764	37.630	-777.99591	0.86374	-641.01434	791.94604	2.16818	-646.08197	-686.08813	13.13842	494.05777	755.77209	12.68849	503.22479	7.88789	1295.81580	-982.86639	
3765	37.640	-777.28961	2.02665	-640.62994	793.22314	3.82302	-645.71124	-684.95929	12.25977	494.53021	757.19415	11.80064	503.57602	8.84673	1298.35449	-980.05859	
3766	37.650	-776.10907	4.02969	-640.32452	793.90271	5.48597	-645.57770	-684.13043	10.81841	494.99066	757.96136	10.40833	504.09167	10.10201	1300.75012	-976.85706	
3767	37.660	-774.74115	5.35335	-639.86749	795.05249	6.94341	-644.92657	-683.05316	9.75082	495.25754	759.35199	9.29359	504.39462	11.03638	1303.29688	-973.75818	
3768	37.670	-773.71948	7.19383	-639.57861	796.17279	8.56036	-644.75696	-681.86932	8.85768	495.66364	760.07617	8.18254	504.79587	12.11351	1305.67029	-969.92126	
3769	37.680	-772.80377	8.68437	-639.32813	797.21497	10.40301	-644.19965	-680.96881	7.68432	495.90771	761.10858	7.02846	505.00186	13.42282	1307.85193	-966.38776	
3770	37.690	-772.01416	10.16774	-638.65338	798.22522	11.66402	-643.78998	-679.96936	6.34681	496.34964	762.26434	5.85607	505.48206	14.42264	1310.04871	-962.60675	
3771	37.700	-770.79236	11.63478	-638.40430	799.06891	13.31282	-643.68646	-678.87024	5.37274	496.65317	763.14349	4.73241	505.85156	15.53310	1312.33630	-958.58594	
3772	37.710	-769.51526	13.26197	-638.03937	800.26465	14.66055	-643.26489	-677.90820	4.65341	497.00061	764.10590	3.64913	506.26987	16.56646	1314.79187	-954.33984	
3773	37.720	-768.69312	14.86170	-637.86127	801.20770	16.36276	-642.94598	-676.71747	3.39323	497.34741	765.18561	2.63866	506.57062	17.26401	1316.95251	-950.18408	
3774	37.730	-767.89825	16.15843	-637.38477	802.07953	17.80509	-642.66058	-675.98187	2.42552	497.71460	766.41846	1.84967	506.91840	18.31997	1319.14319	-945.58777	
3775	37.740	-767.04974	17.77033	-636.90607	803.07709	19.24194	-642.03290	-675.22797	1.33291	498.07538	767.21893	0.63422	507.17429	18.75594	1321.32788	-941.31470	
3776	37.750	-765.56207	18.90148	-636.45306	804.07068	20.93179	-641.66711	-674.07092	0.09394	498.41119	767.44574	-1.16852	507.43909	20.10394	1323.60852	-937.20374	
3777	37.760	-764.46948	20.39887	-636.38458	805.10004	22.51087	-641.25201	-672.99438	-0.93387	498.73822	768.69873	-1.89723	508.38190	20.82388	1325.82458	-933.38416	
3778	37.770	-763.92554	22.51361	-635.70996	806.16785	24.11485	-640.85217	-672.21027	-1.86348	499.17941	770.18152	-2.76947	508.55069	21.99794	1327.97607	-930.43652	
3779	37.780	-763.21338	24.38473	-635.58258	806.76697	25.72331	-640.55579	-671.18390	-2.99150	499.39609	770.86951	-4.01265	508.94965	23.26957	1330.20251	-927.66101	
3780	37.790	-762.39496	25.84674	-635.10968	807.62036	27.07600	-640.04187	-670.40710	-4.30816	499.80670	771.90216	-4.98773	509.53909	23.95102	1332.77466	-924.90247	
3781	37.800	-761.64667	27.32972	-634.25165	808.45599	28.73369	-639.65759	-669.63611	-5.36484	500.11853	772.95013	-6.05884	509.60791	24.69925	1334.70679	-922.31573	
3782	37.810	-760.83374	28.89010	-634.06458	809.35565	30.19431	-639.30615	-668.66162	-6.25394	500.67841	774.00537	-6.93278	509.96274	25.46703	1336.98071	-919.56970	
3783	37.820	-759.79547	30.21820	-633.72137	810.12653	31.59881	-638.76666	-667.67255	-7.38733	500.87018	774.08099	-8.67667	509.91318	26.53558	1339.24048	-916.22217	
3784	37.830	-759.00311	32.03571	-633.80463	810.87189	33.13921	-638.48676	-667.05927	-8.31798	501.24106	774.93677	-9.51145	510.25931	27.20419	1341.36267	-912.53558	
3785	37.840	-758.34772	33.38879	-633.14282	811.67938	34.55099	-638.08392	-666.43622	-9.40396	501.38641	775.48047	-10.67236	510.45193	28.22499	1343.32605	-909.15839	
3786	37.850	-757.52435	34.47697	-632.40442	812.52155	36.05067	-637.55377	-665.65466	-10.45505	501.94662	776.27271	-11.89093	510.80902	28.26763	1345.30151	-905.31891	
3787	37.860	-756.82751	35.99669	-632.13483	813.04199	37.37637	-637.39270	-664.88403	-11.62695	502.05869	777.26813	-12.77654	511.13367	29.46769	1346.92651	-901.72009	
3788	37.870	-756.00854	37.59837	-631.71741	813.86786	38.75135	-636.94470	-664.30994	-12.37738	502.32309	777.78748	-13.94648	511.42896	29.99917	1349.10315	-897.69385	
3789	37.880	-755.70020	38.74220	-631.30389	814.62408	40.28078	-636.54504	-663.59796	-13.30339	502.54535	777.64490	-15.66908	511.95847	30.54193	1351.09827	-894.29858	
3790	37.890	-754.98779	40.63200	-631.10992	815.24994	41.67479	-636.31653	-662.80750	-14.33880	502.93265	777.21600	-16.52458	512.26794	31.14831	1352.88428	-891.30505	
3791	37.900	-754.45947	41.76774	-630.62909	815.89307	42.95318	-635.58270	-662.27368	-15.40318	503.15393	779.62970	-16.79598	512.61829	31.53010	1354.75476	-888.01721	
3792	37.910	-753.80884	42.79342	-630.03802	816.19360	44.30249	-635.17767	-661.87347	-16.29588	503.37564	780.30707	-17.83639	512.99878	32.68781	1356.63342	-885.39093	
3793	37.920	-753.03333	44.41164	-629.90643	816.66406	45.51388	-634.98499	-661.20380	-17.44200	503.75046	780.49347	-18.81128	513.63202	32.87094	1358.57153	-882.80029	
3794	37.930	-752.47418	45.90354	-629.51764	817.37878	46.99189	-634.53986	-660.74591	-18.19781	504.07010	781.28436	-19.82443	513.73535	33.67210	1360.53760	-880.27966	
3795	37.940	-751.97583	46.98639	-629.01013	817.98761	48.25059	-634.10248	-660.10931	-19.11492	504.23575	781.68469	-20.93341	513.89746	34.07232	1362.43591	-877.47180	
3796	37.950	-751.43890	48.41756	-628.73590	818.33466	49.52451	-633.79504	-659.81329	-19.91550	504.42654	782.33490	-21.69471	514.16016	34.72584	1364.00623	-874.61682	
3797	37.960	-751.36163	49.52836	-628.40387	818.74310	50.71809	-633.44543	-659.40338	-20.98272	504.70923	782.39563	-22.66157	514.34161	34.82547	1365.36438	-871.46625	
3798	37.970	-751.08386	50.60257	-627.88708	818.95294	51.74043	-633.06055	-659.09027	-21.83799	505.08044	782.65265	-23.79964	514.52911	35.18003	1367.26123	-868.42242	
3799	37.980	-750.65710	51.55779	-627.80396	819.24500	52.98030	-632.78265	-658.80774	-22.67009	505.14963	782.91077	-24.48416	514.77997	35.54507	1368.76245	-865.45709	
3800	37.990	-750.33142	53.42463	-627.53021	819.42639	54.19556	-632.36401	-658.62500	-23.25890	505.36008	783.24292	-25.24456	514.73065	35.56343	1370.41040	-862.36981	
3801	38.000	-750.43463	54.24083	-627.00275	819.51306	55.25877	-632.09998	-658.45349	-23.99608	505.56253	783.71100	-25.85174	515.25507	36.02094	1371.53247	-859.64722	
3802	38.010	-750.23376	54.93905	-626.55493	819.72150	56.27528	-631.75385	-658.16199	-25.15467	505.93338	783.75299	-26.56467	515.48962	36.13690	1373.06384	-857.23700	
3803	38.020	-749.96674	55.80735	-626.37500	819.91785	57.12583	-631.56238	-658.08954	-25.95836	506.32040	784.08820	-27.53401	516.02191	36.38109	1374.52771	-855.27338	
3804	38.030	-749.94006	57.07174	-626.02478	820.00012	58.21877	-630.86035	-657.78082	-26.88810	506.53030	783.97131	-28.21167	516.21716	36.39121	1375.79712	-853.06274	
3805	38.040	-749.81836	58.57293	-625.51465	820.00549	59.45403	-630.75592	-657.53894	-27.87385	507.15756	784.18323	-29.10224	516.63708	36.83153	1377.43591	-851.55408	
3806	38.050	-749.79712	59.21043	-625.16620	820.18585	60.13111	-630.20770	-658.00281	-27.87903	506.59741	784.29755	-29.79287	516.59192	36.82347	1378.96838	-849.63440	
3807	38.060	-750.04419	59.77819	-624.55103	820.26794	60.73463	-629.91620	-657.99017	-28.71490	506.66058	784.13153	-30.44705	516.62036	36.60537	1380.04651	-847.29248	
3808	38.070	-750.06653	60.70605	-624.44507	820.15497	62.14378	-629.78802	-657.93744	-29.57633	506.80524	784.07928	-31.51134	516.71161	36.66022	1381.48706	-844.77118	
3809	38.080	-750.12152	62.02172	-624.24579	820.01587	62.98568	-629.42749	-658.11218	-29.97713	506.84460	783.81073	-32.06440	517.47382	36.48428	1382.49536	-841.76166	
3810	38.090	-750.14862	62.93051	-623.73584	819.82562	63.65097	-629.11035	-658.22650	-30.55486	507.04782	783.74500	-32.25070	517.68939	36.37551	1383.57971	-839.12848	
3811	38.100	-750.33423	63.93229	-623.70667	819.47424	64.39338	-628.84607	-658.35089	-31.12914	507.22128	783.61407	-33.05969	517.71143	36.13695	1384.70508	-836.80017	
3812	38.110	-750.80310	64.53526	-623.46887	819.33118	65.50979	-628.40430	-658.61121	-31.53752	507.38272	783.57922	-33.54479	517.58057	35.82195	1385.61609	-834.37152	
3813	38.120	-751.12640	64.85773	-623.36749	819.01343	66.07276	-628.27832	-659.04242	-32.01413	507.77328	783.09961	-34.25702	517.59430	35.23658	1386.22986	-832.66357	
3814	38.130	-751.45990	65.54601	-623.32520	818.59235	66.50960	-628.23975	-659.64044	-32.63604	507.92435	782.81708	-34.74450	517.70416	34.73363	1386.91687	-831.43079	
3815	38.140	-751.67377	66.21094	-623.08435	818.30713	66.95723	-628.05444	-659.88348	-32.96747	508.03745	782.00684	-35.06548	518.12915	34.53176	1387.87646	-830.54419	
3816	38.150	-752.00922	67.00951	-622.58630	817.89178	67.42432	-627.88098	-660.22937	-33.06070	508.07166	781.71277	-35.24443	518.27252	34.68321	1388.66736	-829.88531	
